#!OML:ASF H:\Not Pregnant\Project 1\Capture day 1\Session 1\non-pregnant.ASF
:FULLY-SPECIFIED
:DEGREES
726
root 5.53858 16.2233 15.0619 16.2132 -0.973804 -3.74641
lowerback 0.19843 2.0071 2.06444
upperback -5.37536 2.72985 -0.722194
thorax -5.54364 1.24417 -2.03773
lowerneck 15.3823 -10.5734 -28.6085
upperneck -18.0837 -16.194 47.2344
head 0.395756 -10.863 25.8618
rclavicle -4.12478e-015 -6.75868e-015
rhumerus -53.8955 49.3398 -106.552
rradius 85.1457
rwrist -5.32188
rhand -10.2363 2.62812
rfingers 7.12502
rthumb 15.7561 -26.7506
lclavicle -4.12478e-015 -6.75868e-015
lhumerus -58.9902 -35.2853 113.151
lradius 86.5487
lwrist 67.8011
lhand -17.7878 3.22029
lfingers 7.12502
lthumb 8.47514 33.0302
rfemur -27.3431 -1.82763 23.8069
rtibia 45.9415
rfoot -19.0338 0.306594
rtoes -26.0965
lfemur -29.8232 0.906214 -20.0381
ltibia 32.7667
lfoot -17.7553 -7.81838
ltoes -18.195
727
root 5.54016 16.2218 15.0271 16.304 -1.2954 -3.76923
lowerback -0.0660832 2.07403 2.08967
upperback -5.43019 2.8143 -0.736146
thorax -5.44439 1.28604 -2.06012
lowerneck 15.4058 -10.5371 -28.6418
upperneck -17.9366 -16.1925 47.2015
head 0.42378 -10.8558 25.8444
rclavicle 2.00276e-014 9.14409e-015
rhumerus -53.8313 49.1131 -105.43
rradius 85.1935
rwrist -5.36271
rhand -9.43012 2.14237
rfingers 7.12502
rthumb 16.5324 -27.1733
lclavicle 2.00276e-014 9.14409e-015
lhumerus -58.6773 -35.446 112.945
lradius 86.2639
lwrist 67.0337
lhand -17.8435 2.62354
lfingers 7.12502
lthumb 8.4214 32.4356
rfemur -26.1699 -2.29203 23.9953
rtibia 45.2989
rfoot -19.0919 -0.0766668
rtoes -26.1067
lfemur -30.1022 1.20374 -20.094
ltibia 32.9028
lfoot -17.7043 -7.8337
ltoes -18.1502
728
root 5.5405 16.2202 14.9913 16.4286 -1.63913 -3.777
lowerback -0.344975 2.14718 2.08548
upperback -5.49973 2.9058 -0.75355
thorax -5.35328 1.3325 -2.06915
lowerneck 15.4259 -10.4983 -28.6794
upperneck -17.785 -16.1888 47.1705
head 0.453642 -10.8472 25.831
rclavicle -1.51573e-014 1.19271e-014
rhumerus -53.7663 48.9187 -104.281
rradius 85.2266
rwrist -5.44742
rhand -8.58013 1.5839
rfingers 7.12502
rthumb 17.3506 -27.6617
lclavicle -1.51573e-014 1.19271e-014
lhumerus -58.326 -35.5518 112.686
lradius 85.9853
lwrist 66.2352
lhand -17.892 2.12714
lfingers 7.12502
lthumb 8.37454 31.9411
rfemur -25.0316 -2.76029 24.148
rtibia 44.5731
rfoot -19.0938 -0.477896
rtoes -26.084
lfemur -30.4194 1.5034 -20.165
ltibia 33.0333
lfoot -17.6439 -7.83489
ltoes -18.1279
729
root 5.53984 16.2187 14.9535 16.5828 -1.93496 -3.75614
lowerback -0.61985 2.20087 2.0668
upperback -5.58249 2.97091 -0.77558
thorax -5.28027 1.36599 -2.07393
lowerneck 15.4378 -10.4645 -28.7151
upperneck -17.6283 -16.1913 47.1338
head 0.488137 -10.8405 25.8059
rclavicle -1.70458e-014 -1.59028e-015
rhumerus -53.6943 48.7571 -103.1
rradius 85.2545
rwrist -5.62437
rhand -7.6469 0.957164
rfingers 7.12502
rthumb 18.2486 -28.2068
lclavicle -1.70458e-014 -1.59028e-015
lhumerus -57.9317 -35.5933 112.363
lradius 85.722
lwrist 65.4377
lhand -17.9465 1.77993
lfingers 7.12502
lthumb 8.32192 31.596
rfemur -23.9322 -3.27849 24.2684
rtibia 43.7789
rfoot -19.0203 -0.923088
rtoes -25.9962
lfemur -30.7802 1.74344 -20.2514
ltibia 33.1532
lfoot -17.5618 -7.83591
ltoes -18.118
730
root 5.53832 16.2171 14.9133 16.7594 -2.16187 -3.69851
lowerback -0.876709 2.22723 2.0339
upperback -5.67584 2.99944 -0.803181
thorax -5.231 1.38127 -2.07614
lowerneck 15.4327 -10.4399 -28.7495
upperneck -17.4651 -16.2049 47.092
head 0.532221 -10.8375 25.7654
rclavicle 4.9895e-014 5.96354e-015
rhumerus -53.62 48.6305 -101.892
rradius 85.2774
rwrist -5.91498
rhand -6.66869 0.284209
rfingers 7.12502
rthumb 19.1894 -28.7891
lclavicle 4.9895e-014 5.96354e-015
lhumerus -57.4726 -35.5676 111.952
lradius 85.482
lwrist 64.6351
lhand -17.9751 1.71476
lfingers 7.12502
lthumb 8.29438 31.5319
rfemur -22.8676 -3.85958 24.3579
rtibia 42.9266
rfoot -18.8687 -1.43637
rtoes -25.9076
lfemur -31.1797 1.88982 -20.354
ltibia 33.2607
lfoot -17.4542 -7.82584
ltoes -18.1437
731
root 5.53645 16.2156 14.8708 16.9534 -2.33463 -3.61131
lowerback -1.11265 2.23255 1.99751
upperback -5.78428 3.00013 -0.838246
thorax -5.21083 1.38204 -2.08462
lowerneck 15.4231 -10.4166 -28.7826
upperneck -17.2929 -16.2208 47.0458
head 0.579538 -10.8348 25.7179
rclavicle 4.5969e-014 -1.98785e-015
rhumerus -53.5729 48.5522 -100.687
rradius 85.2901
rwrist -6.34291
rhand -5.70008 -0.427078
rfingers 7.12502
rthumb 20.1206 -29.4052
lclavicle 4.5969e-014 -1.98785e-015
lhumerus -56.9818 -35.4857 111.486
lradius 85.2531
lwrist 63.8471
lhand -18.012 1.83636
lfingers 7.12502
lthumb 8.25876 31.6549
rfemur -21.8345 -4.4886 24.4202
rtibia 42.0175
rfoot -18.6627 -2.02285
rtoes -25.9643
lfemur -31.6093 1.96032 -20.4705
ltibia 33.3558
lfoot -17.3284 -7.79725
ltoes -18.2255
732
root 5.53479 16.2136 14.8277 17.1339 -2.48806 -3.51442
lowerback -1.32553 2.22968 1.97937
upperback -5.89362 2.99055 -0.879193
thorax -5.2042 1.37642 -2.11017
lowerneck 15.4168 -10.3882 -28.82
upperneck -17.1088 -16.2341 46.9984
head 0.628173 -10.8305 25.6732
rclavicle 3.08116e-015 5.1684e-015
rhumerus -53.5681 48.5269 -99.4966
rradius 85.2954
rwrist -6.90174
rhand -4.76909 -1.14086
rfingers 7.12502
rthumb 21.0153 -30.0222
lclavicle 3.08116e-015 5.1684e-015
lhumerus -56.475 -35.3495 110.974
lradius 85.0353
lwrist 63.0796
lhand -18.0484 2.08199
lfingers 7.12502
lthumb 8.22366 31.9019
rfemur -20.7865 -5.13927 24.4628
rtibia 41.0416
rfoot -18.4425 -2.64291
rtoes -26.2526
lfemur -32.0237 1.98944 -20.5877
ltibia 33.4439
lfoot -17.1858 -7.75701
ltoes -18.2839
733
root 5.53345 16.2109 14.7852 17.2692 -2.65482 -3.4171
lowerback -1.4949 2.22727 1.98076
upperback -5.99267 2.98255 -0.925079
thorax -5.21037 1.37032 -2.1535
lowerneck 15.4041 -10.3569 -28.8548
upperneck -16.9073 -16.245 46.9463
head 0.679988 -10.8235 25.6231
rclavicle 8.15017e-015 -7.95139e-015
rhumerus -53.6089 48.5608 -98.3256
rradius 85.2936
rwrist -7.56971
rhand -3.87921 -1.83173
rfingers 7.12502
rthumb 21.87 -30.6158
lclavicle 8.15017e-015 -7.95139e-015
lhumerus -55.9686 -35.1574 110.43
lradius 84.8265
lwrist 62.3591
lhand -18.1044 2.37626
lfingers 7.12502
lthumb 8.16961 32.1983
rfemur -19.68 -5.77862 24.4813
rtibia 39.9821
rfoot -18.2466 -3.24634
rtoes -26.8331
lfemur -32.3829 2.01501 -20.7026
ltibia 33.5339
lfoot -17.0531 -7.69168
ltoes -18.3715
734
root 5.53239 16.2077 14.7445 17.3429 -2.86353 -3.33836
lowerback -1.62692 2.23381 2.01383
upperback -6.06593 2.98746 -0.971856
thorax -5.20846 1.36937 -2.21668
lowerneck 15.3742 -10.3268 -28.8826
upperneck -16.6876 -16.2558 46.888
head 0.737737 -10.8142 25.5608
rclavicle -2.03754e-015 9.14409e-015
rhumerus -53.6817 48.6564 -97.1662
rradius 85.2869
rwrist -8.30475
rhand -3.03894 -2.46052
rfingers 7.12502
rthumb 22.6766 -31.1482
lclavicle -2.03754e-015 9.14409e-015
lhumerus -55.4642 -34.9209 109.858
lradius 84.628
lwrist 61.7308
lhand -18.1998 2.60638
lfingers 7.12502
lthumb 8.07752 32.432
rfemur -18.4878 -6.37543 24.4819
rtibia 38.8198
rfoot -18.1154 -3.76962
rtoes -27.6749
lfemur -32.6618 2.07742 -20.8025
ltibia 33.6343
lfoot -16.9433 -7.60547
ltoes -18.4731
735
root 5.53146 16.2038 14.7058 17.3585 -3.15758 -3.30068
lowerback -1.72818 2.26626 2.08799
upperback -6.11837 3.02808 -1.01759
thorax -5.19836 1.38453 -2.30325
lowerneck 15.3462 -10.2867 -28.9068
upperneck -16.451 -16.2552 46.8288
head 0.793028 -10.7989 25.5032
rclavicle 2.13445e-014 -1.98785e-015
rhumerus -53.7961 48.8204 -96.0308
rradius 85.2744
rwrist -9.07302
rhand -2.22669 -3.0178
rfingers 7.12502
rthumb 23.456 -31.608
lclavicle 2.13445e-014 -1.98785e-015
lhumerus -54.9826 -34.6499 109.279
lradius 84.4279
lwrist 61.2294
lhand -18.3672 2.69745
lfingers 7.12502
lthumb 7.91591 32.5292
rfemur -17.2192 -6.88274 24.4734
rtibia 37.542
rfoot -18.0638 -4.15232
rtoes -28.6971
lfemur -32.8625 2.21606 -20.8725
ltibia 33.7534
lfoot -16.8644 -7.48413
ltoes -18.5919
736
root 5.53012 16.1997 14.6682 17.3395 -3.54539 -3.29784
lowerback -1.81521 2.32409 2.18625
upperback -6.14981 3.10303 -1.06274
thorax -5.17103 1.41609 -2.4033
lowerneck 15.3017 -10.243 -28.9256
upperneck -16.1998 -16.2475 46.7706
head 0.851624 -10.7786 25.4454
rclavicle 1.06847e-015 2.38542e-015
rhumerus -53.9137 49.0606 -94.8916
rradius 85.2578
rwrist -9.8331
rhand -1.40744 -3.48794
rfingers 7.12502
rthumb 24.2416 -31.9755
lclavicle 1.06847e-015 2.38542e-015
lhumerus -54.4928 -34.3442 108.67
lradius 84.2281
lwrist 60.8463
lhand -18.6009 2.68163
lfingers 7.12502
lthumb 7.6904 32.5218
rfemur -15.9155 -7.2765 24.4521
rtibia 36.144
rfoot -18.1007 -4.35628
rtoes -29.7622
lfemur -33.0175 2.428 -20.9181
ltibia 33.8969
lfoot -16.8108 -7.31774
ltoes -18.7442
737
root 5.52806 16.1957 14.6301 17.3258 -3.99525 -3.33086
lowerback -1.89991 2.3978 2.3144
upperback -6.179 3.19954 -1.10625
thorax -5.1397 1.45711 -2.51857
lowerneck 15.2443 -10.1946 -28.9402
upperneck -15.9326 -16.2331 46.7146
head 0.913646 -10.7539 25.3895
rclavicle -1.18277e-014 -3.97569e-015
rhumerus -54.0423 49.3756 -93.7548
rradius 85.2457
rwrist -10.5427
rhand -0.590634 -3.88324
rfingers 7.12502
rthumb 25.0245 -32.2641
lclavicle -1.18277e-014 -3.97569e-015
lhumerus -54.0104 -34.0097 108.045
lradius 84.0247
lwrist 60.6006
lhand -18.915 2.50784
lfingers 7.12502
lthumb 7.38721 32.3589
rfemur -14.6395 -7.56014 24.4379
rtibia 34.6243
rfoot -18.2116 -4.3807
rtoes -30.7016
lfemur -33.186 2.6795 -20.9296
ltibia 34.0717
lfoot -16.7677 -7.10682
ltoes -18.9339
738
root 5.52509 16.1916 14.5907 17.3365 -4.50565 -3.39108
lowerback -1.99511 2.4869 2.46044
upperback -6.21251 3.31639 -1.15017
thorax -5.10432 1.50749 -2.64394
lowerneck 15.1763 -10.1407 -28.9518
upperneck -15.6512 -16.2112 46.6613
head 0.977986 -10.7246 25.3374
rclavicle 2.3556e-014 5.56597e-015
rhumerus -54.1762 49.7615 -92.6183
rradius 85.2372
rwrist -11.1719
rhand 0.234567 -4.20459
rfingers 7.12502
rthumb 25.815 -32.4729
lclavicle 2.3556e-014 5.56597e-015
lhumerus -53.518 -33.6359 107.386
lradius 83.8197
lwrist 60.4288
lhand -19.2481 2.33784
lfingers 7.12502
lthumb 7.06564 32.1999
rfemur -13.4243 -7.7292 24.433
rtibia 32.9816
rfoot -18.3781 -4.27196
rtoes -31.4559
lfemur -33.3952 2.95828 -20.9144
ltibia 34.2831
lfoot -16.7323 -6.84563
ltoes -19.1889
